<svg xmlns="http://www.w3.org/2000/svg" viewBox="0 0 155 23">
  <g transform="translate(0,0)">
    <path fill-rule="evenodd" clip-rule="evenodd" d="M21.043 3.08322C21.043 4.78604 19.6626 6.16644 17.9598 6.16644C16.2569 6.16644 14.8765 4.78604 14.8765 3.08322C14.8765 1.3804 16.2569 0 17.9598 0C19.6626 0 21.043 1.3804 21.043 3.08322ZM13.5071 7.70808C12.8586 7.70808 12.3329 8.23382 12.3329 8.88235V10.3878C12.3329 11.0364 12.8586 11.5621 13.5071 11.5621H21.9499C22.5984 11.5621 23.1242 11.0364 23.1242 10.3878V8.88235C23.1242 8.23382 22.5984 7.70808 21.9499 7.70808H13.5071ZM12.3329 14.2778C12.3329 13.6293 12.8586 13.1035 13.5071 13.1035H21.9499C22.5984 13.1035 23.1242 13.6293 23.1242 14.2778V15.7833C23.1242 16.4318 22.5984 16.9576 21.9499 16.9576H13.5071C12.8586 16.9576 12.3329 16.4318 12.3329 15.7833V14.2778ZM12.3329 19.6736C12.3329 19.0251 12.8586 18.4993 13.5071 18.4993H21.9499C22.5984 18.4993 23.1242 19.0251 23.1242 19.6736V21.1791C23.1242 21.8276 22.5984 22.3534 21.9499 22.3534H13.5071C12.8586 22.3534 12.3329 21.8276 12.3329 21.1791V19.6736Z" fill="#1D1D1B"/>
    <path fill-rule="evenodd" clip-rule="evenodd" d="M33.1448 8.47885C33.1448 10.1817 31.7644 11.5621 30.0616 11.5621C28.3587 11.5621 26.9783 10.1817 26.9783 8.47885C26.9783 6.77604 28.3587 5.39563 30.0616 5.39563C31.7644 5.39563 33.1448 6.77604 33.1448 8.47885ZM25.84 13.1037C25.1915 13.1037 24.6658 13.6294 24.6658 14.278V15.7835C24.6658 16.432 25.1915 16.9577 25.84 16.9577H34.2828C34.9313 16.9577 35.457 16.432 35.457 15.7835V14.278C35.457 13.6294 34.9313 13.1037 34.2828 13.1037H25.84ZM25.84 18.4992C25.1915 18.4992 24.6658 19.0249 24.6658 19.6734V21.1789C24.6658 21.8275 25.1915 22.3532 25.84 22.3532H34.2828C34.9313 22.3532 35.457 21.8275 35.457 21.1789V19.6734C35.457 19.0249 34.9313 18.4992 34.2828 18.4992H25.84Z" fill="#1D1D1B"/>
    <path fill-rule="evenodd" clip-rule="evenodd" d="M8.71009 13.9579C8.71009 15.5774 7.32969 16.9578 5.62687 16.9578C3.92405 16.9578 2.54365 15.5774 2.54365 13.9579C2.54365 12.1718 3.92405 10.7914 5.62687 10.7914C7.32969 10.7914 8.71009 12.1718 8.71009 13.9579ZM0 19.6737C0 19.0252 0.525736 18.4995 1.17426 18.4995H9.61701C10.2655 18.4995 10.7913 19.0252 10.7913 19.6737V21.1792C10.7913 21.8278 10.2655 22.3535 9.61701 22.3535H1.17426C0.525735 22.3535 0 21.8278 0 21.1792V19.6737Z" fill="#1D1D1B"/>
  </g>
  <g transform="translate(40, 2)">
    <path d="M6.43795 18.1831C8.36947 18.1831 9.96448 17.3607 11.0541 16.1028C11.1682 15.9711 11.1449 15.7725 11.0093 15.663L9.42274 14.3825C9.28597 14.2721 9.08672 14.2944 8.96167 14.4179C8.34466 15.0273 7.43676 15.3958 6.48865 15.3958C4.4356 15.3958 2.96551 13.8473 2.96551 11.8342C2.96551 9.79538 4.4356 8.2985 6.48865 8.2985C7.43676 8.2985 8.34466 8.66699 8.96167 9.27634C9.08672 9.39984 9.28597 9.4222 9.42274 9.31181L11.0093 8.03124C11.1449 7.92179 11.1682 7.72316 11.0541 7.59144C9.96448 6.33356 8.36947 5.5112 6.43795 5.5112C3.01621 5.5112 0 8.0146 0 11.8342C0 15.6539 3.01621 18.1831 6.43795 18.1831Z" fill="#1D1D1B"/>
    <path d="M19.6097 5.5112C18.1396 5.5112 16.847 6.38868 16.2133 8.40173V6.1399C16.2133 5.96372 16.0705 5.8209 15.8943 5.8209H13.5921C13.416 5.8209 13.2731 5.96372 13.2731 6.1399V17.5544C13.2731 17.7306 13.416 17.8734 13.5921 17.8734H15.9196C16.0958 17.8734 16.2386 17.7306 16.2386 17.5544V13.6666C16.2386 10.2857 17.3032 8.32431 19.2295 8.32431C19.5775 8.32431 20.0413 8.37481 20.5674 8.58461C20.7648 8.66336 20.9958 8.55489 21.0386 8.34664L21.4893 6.15161C21.5171 6.01602 21.455 5.8764 21.3277 5.82204C20.8681 5.62576 20.2201 5.5112 19.6097 5.5112Z" fill="#1D1D1B"/>
    <path d="M28.1684 18.1831C31.5395 18.1831 34.4796 15.6539 34.4796 11.8342C34.4796 8.0146 31.5395 5.5112 28.1684 5.5112C24.7974 5.5112 21.8825 8.0146 21.8825 11.8342C21.8825 15.6539 24.7974 18.1831 28.1684 18.1831ZM28.1684 15.3958C26.3435 15.3958 24.8481 13.9505 24.8481 11.8342C24.8481 9.76957 26.3435 8.2985 28.1684 8.2985C29.9934 8.2985 31.5141 9.76957 31.5141 11.8342C31.5141 13.9505 29.9934 15.3958 28.1684 15.3958Z" fill="#1D1D1B"/>
    <path d="M48.4537 13.1193C48.4061 13.2666 48.1977 13.2666 48.1501 13.1193L45.864 6.04185C45.8214 5.91014 45.6988 5.8209 45.5604 5.8209H43.4141C43.2757 5.8209 43.1531 5.91014 43.1106 6.04185L40.8244 13.1193C40.7769 13.2666 40.5685 13.2666 40.5209 13.1193L38.2347 6.04185C38.1922 5.91014 38.0696 5.8209 37.9312 5.8209H35.4506C35.2292 5.8209 35.0751 6.04091 35.1508 6.24896L39.3036 17.6634C39.3495 17.7895 39.4693 17.8734 39.6034 17.8734H41.6058C41.7445 17.8734 41.8673 17.7838 41.9096 17.6517L44.4746 9.64053L47.1643 17.6559C47.208 17.7858 47.3297 17.8734 47.4668 17.8734H49.4957C49.6309 17.8734 49.7514 17.7881 49.7964 17.6606L53.8292 6.24617C53.9025 6.0386 53.7485 5.8209 53.5284 5.8209H51.0434C50.9049 5.8209 50.7823 5.91014 50.7398 6.04185L48.4537 13.1193Z" fill="#1D1D1B"/>
    <path d="M64.3401 7.3952C63.529 6.1306 61.8815 5.5112 60.3861 5.5112C57.2685 5.5112 54.5818 7.96299 54.5818 11.8342C54.5818 15.6797 57.2939 18.1831 60.4114 18.1831C61.8562 18.1831 63.529 17.5379 64.3401 16.2733V17.5544C64.3401 17.7306 64.4829 17.8734 64.6591 17.8734H66.9613C67.1375 17.8734 67.2803 17.7306 67.2803 17.5544V0.452535C67.2803 0.231972 67.0618 0.0779612 66.8541 0.152088L64.5519 0.973586C64.4249 1.01891 64.3401 1.13919 64.3401 1.27403V7.3952ZM60.8677 15.3958C59.0428 15.3958 57.5473 13.8215 57.5473 11.8084C57.5473 9.79538 59.0428 8.2985 60.8677 8.2985C62.5659 8.2985 64.2894 9.69215 64.2894 11.8084C64.2894 13.9247 62.6673 15.3958 60.8677 15.3958Z" fill="#1D1D1B"/>
    <path d="M75.957 18.1831C77.8885 18.1831 79.4836 17.3607 80.5732 16.1028C80.6873 15.9711 80.664 15.7725 80.5284 15.663L78.9418 14.3825C78.8051 14.2721 78.6058 14.2944 78.4807 14.4179C77.8637 15.0273 76.9558 15.3958 76.0077 15.3958C73.9547 15.3958 72.4846 13.8473 72.4846 11.8342C72.4846 9.79538 73.9547 8.2985 76.0077 8.2985C76.9558 8.2985 77.8637 8.66699 78.4807 9.27634C78.6058 9.39984 78.8051 9.4222 78.9418 9.31181L80.5284 8.03124C80.664 7.92179 80.6873 7.72316 80.5732 7.59144C79.4836 6.33356 77.8885 5.5112 75.957 5.5112C72.5353 5.5112 69.5191 8.0146 69.5191 11.8342C69.5191 15.6539 72.5353 18.1831 75.957 18.1831Z" fill="#1D1D1B"/>
    <path d="M91.5933 7.49844C90.8076 6.23383 89.2361 5.5112 87.614 5.5112C84.2682 5.5112 81.835 8.19526 81.835 11.8342C81.835 15.5764 84.3696 18.1831 87.5379 18.1831C89.2361 18.1831 90.8076 17.3056 91.5933 15.9894V17.5544C91.5933 17.7306 91.7361 17.8734 91.9123 17.8734H94.2145C94.3907 17.8734 94.5335 17.7306 94.5335 17.5544V6.1399C94.5335 5.96372 94.3907 5.8209 94.2145 5.8209H91.9123C91.7361 5.8209 91.5933 5.96372 91.5933 6.1399V7.49844ZM88.1462 15.3958C86.2199 15.3958 84.7752 13.7699 84.7752 11.8342C84.7752 9.89861 86.2199 8.2985 88.1209 8.2985C89.8698 8.2985 91.5426 9.76957 91.5426 11.8342C91.5426 13.8473 89.9712 15.3958 88.1462 15.3958Z" fill="#1D1D1B"/>
    <path d="M101.487 18.1831C103.895 18.1831 106.302 16.841 106.302 14.3893C106.302 13.2795 105.821 11.5762 103.16 10.8793L101.259 10.3632C100.574 10.2083 99.9912 9.847 99.9912 9.2276C99.9912 8.47915 100.625 7.93718 101.537 7.93718C102.261 7.93718 102.909 8.3238 103.07 8.9632C103.114 9.13403 103.252 9.27921 103.428 9.27921H105.606C105.781 9.27921 105.925 9.13715 105.914 8.9625C105.756 6.50955 103.48 5.5112 101.461 5.5112C98.876 5.5112 97.0511 7.21455 97.0511 9.09855C97.0511 10.6212 97.7354 12.0665 100.397 12.7891L101.968 13.2021C102.855 13.4085 103.362 13.7182 103.362 14.3893C103.362 15.1635 102.602 15.7571 101.436 15.7571C100.355 15.7571 99.6769 15.1702 99.5196 14.4734C99.4808 14.3015 99.3415 14.157 99.1653 14.157H97.0469C96.8683 14.157 96.7231 14.3046 96.7406 14.4823C96.9742 16.859 99.2304 18.1831 101.487 18.1831Z" fill="#1D1D1B"/>
    <path d="M112.491 5.8209V1.8344C112.491 1.61384 112.272 1.45983 112.064 1.53396L109.762 2.35545C109.635 2.40077 109.551 2.52105 109.551 2.6559V5.8209H107.74C107.564 5.8209 107.421 5.96372 107.421 6.1399V7.87626C107.421 8.05244 107.564 8.19526 107.74 8.19526H109.551V17.5544C109.551 17.7306 109.693 17.8734 109.87 17.8734H112.172C112.348 17.8734 112.491 17.7306 112.491 17.5544V8.19526H114.681C114.857 8.19526 115 8.05244 115 7.87626V6.1399C115 5.96372 114.857 5.8209 114.681 5.8209H112.491Z" fill="#1D1D1B"/>
  </g>
</svg>
