<svg xmlns="http://www.w3.org/2000/svg" height="800" width="1200" viewBox="-3.9051315 -1.31134 33.844473 7.86804"><g fill="none" fill-rule="evenodd"><path d="M11.42735 1.28958c-.18917-.1053-.47016-.1569-.85936-.1569-.53234.00053-1.02659.11271-1.21338.18336-.04234.01376-.08731.0508-.08837.11377v.01429l.05291.26881.00106.0053c.0164.05423.06139.07937.10187.07937h.00079c.01323-.00106.02328-.0037.0328-.00609l.08864-.02116c.23204-.05821.58262-.14764.97367-.14764.2376 0 .39688.02117.50403.06668.17357.06693.17463.18097.17648.36962v.2823c-.01984-.00052-.05345-.00079-.10504-.00079-.19182 0-.56885.00927-.93927.06933-.56568.08837-1.03373.22569-1.03055 1.01732 0 1.00489.9181 1.00647 1.3589 1.00753.29898-.00053.57547-.0455.75618-.08308.41142-.0971.51673-.22966.51117-.64479V2.03544c0-.25506.00106-.57203-.3228-.74612zm-.22622 2.58048c-.21907.07223-.45878.10848-.71278.10848v.02381-.02381c-.40587-.00317-.80169-.05027-.80248-.57547.00264-.41804.22225-.46752.50006-.53049l.01931-.0045c.24712-.0537.86837-.0635.99616-.06508v1.06706zm5.13557-1.83488v1.67057c.00529.4154-.09975.5477-.51144.6448-.17992.03783-.4564.0828-.75592.08307-.4408-.00105-1.35863-.00264-1.3589-1.00727-.00344-.7911.46461-.92868 1.0303-1.01705.3704-.06033.7477-.06959.93926-.06959.05186 0 .0852.00053.10583.0008v-.28205c-.00211-.18865-.00343-.30242-.17674-.36936-.10689-.04604-.2667-.06667-.5043-.06667-.39158 0-.74188.0889-.97366.14763l-.08837.02117c-.00953.00265-.01984.0053-.03307.0053-.04075 0-.08546-.02435-.10213-.07938l-.00133-.00477-.05291-.26881v-.01403c.00106-.06297.04604-.10054.0881-.11377.18733-.07064.68104-.18309 1.21365-.18335.38894 0 .67019.0516.8591.15716.32359.17383.3228.4908.32226.7456zm-.5477.76782c-.12859.00132-.74877.01137-.99642.06508l-.01984.0045c-.27782.06297-.49742.11245-.50007.5305.00053.52519.39688.57255.80275.57546v.02381-.02381c.254 0 .49371-.03625.71279-.10848V2.803zm8.85746-1.67058c-1.27794.00211-1.38642.8546-1.38774 1.65364.00132.7964.10953 1.64571 1.38774 1.64756 1.27714-.00211 1.38588-.8493 1.38774-1.64782-.00133-.83608-.10954-1.65153-1.38774-1.65365zm0 2.835c-.77523-.0037-.81413-.40745-.81942-1.1811.0053-.77734.04419-1.18347.81915-1.18691.77523.00344.81439.40957.81968 1.18665-.0053.77364-.04445 1.1774-.81941 1.18137zm-2.29394.34873l-.03307.00847c-.1786.04603-.42334.109-.8525.109h-.00105c-1.18322-.00211-1.415-.60774-1.41631-1.65364.00105-1.1991.3757-1.64571 1.38112-1.6473.35507 0 .59981.04683.77523.08996l-.00106-.96626c-.00132-.04233.0172-.0979.11589-.11694l.31432-.0815h.0172c.07223.00186.0979.06694.0979.1225v3.63009c.00476.22966-.02196.42598-.39767.50615zm-.14737-2.6289c-.10478-.02699-.39767-.0942-.7276-.0942-.60538.0061-.8599.17304-.86573 1.19328.00715 1.1205.3355 1.18136.87128 1.18665v.02382-.02382c.33337 0 .61965-.07064.72178-.09869V1.68725zm-2.82284 2.67044h-.28046c-.07594 0-.1323-.05768-.1323-.13415v-2.1537c-.00529-.36407-.11297-.46567-.49926-.47096-.4371 0-.87974.11165-1.02553.15187V4.2238c0 .07752-.05291.13414-.1262.13414h-.28708c-.0754 0-.13229-.05768-.13229-.13388V1.80843c-.00397-.22331.0164-.37783.32994-.48101.29977-.10504.87312-.1942 1.2528-.19447.72231.00105 1.03055.2659 1.03187.8853v2.20609c0 .0762-.05688.13388-.13229.13388zm-6.36403.0582c.16193-.00343.281-.03545.32809-.0889.0164-.01851.0238-.04074.02196-.06217-.00106-.018-.00106-.018-.04498-.2286l-.00133-.0053c-.00952-.05476-.04762-.0799-.0799-.0799h-.00476s-.04048-.00079-.0807-.00079c-.11536-.0037-.21087-.02117-.21272-.19156V.17992c0-.05927-.03546-.12039-.1032-.12171h-.02037l-.31485.08202c-.05345.0053-.10954.04419-.1069.11589v3.51366c.0008.41593.22094.64559.61966.64638zm-4.44447-.0582H6.31904c-.0754 0-.13229-.05768-.13229-.13415v-.2794c-.00132-.06879.02011-.09869.06191-.15134l1.79467-2.11799H6.28465c-.0754 0-.1323-.0582-.1323-.1344V1.3425c0-.07673.05716-.13415.1323-.13415H8.5627c.07488 0 .1315.05768.13176.13415v.28522c.00133.0516-.01587.09525-.05688.14128L6.83842 3.8915h1.73567c.07514 0 .13176.05767.13229.13414v.19843c-.00053.07594-.05715.13362-.1323.13362z" fill="#1d1d1b"/><path d="M1.04457 5.24537c-.19129 0-.29765-.04551-.35454-.07859-.07858-.04603-.2233-.16324-.35322-.50985C.1286 4.10104.0053 3.42213 0 2.62467v-.00265c.0053-.79904.12859-1.4777.33681-2.03385C.46646.24183.6112.12435.69056.07858.74666.04498.85276 0 1.04378 0c.07303 0 .15875.00662.25823.02275C1.8804.118 2.52095.349 3.20437.74322l.00212.00105c.67786.40376 1.19538.85117 1.56553 1.31234.23099.28786.2585.4736.2585.56568 0 .09207-.02751.27834-.2585.56568-.37041.46116-.88767.90884-1.56553 1.31233l-.00265.00159c-.68263.39423-1.32345.6252-1.90183.7202-.09974.01666-.1852.02301-.2577.02301" fill="#ff6900"/></g></svg>